<?xml version="1.0" encoding="utf-8" ?>
<svg baseProfile="full" height="100%" version="1.1" width="100%" xmlns="http://www.w3.org/2000/svg" xmlns:ev="http://www.w3.org/2001/xml-events" xmlns:xlink="http://www.w3.org/1999/xlink"><defs /><line id="c1_r5_e0" stroke="#ff0000" x1="377.952755906" x2="0.0" y1="0.0" y2="0.0" /><line id="c1_r5_e1" stroke="#ff0000" x1="0.0" x2="0.0" y1="0.0" y2="1511.81102362" /><line id="c1_r5_e2" stroke="#ff0000" x1="0.0" x2="377.952755906" y1="1511.81102362" y2="1511.81102362" /><line id="c1_r5_e3" kerning="0" stroke="#ff0000" x1="377.952755906" x2="377.952755906" y1="1511.81102362" y2="0.0" /><line id="c1_r6_e1" kerning="0" stroke="#ff0000" x1="755.905511811" x2="755.905511811" y1="0.0" y2="1511.81102362" /><line id="tempc1_r6_e3" stroke="#ff0000" x1="755.905511811" x2="755.905511811" y1="3401.57480315" y2="1889.76377953" /><line id="tempc1_r6_e2" stroke="#ff0000" x1="377.952755906" x2="377.952755906" y1="1889.76377953" y2="1511.81102362" /><line id="c1_r3_e0" kerning="0" stroke="#ff0000" x1="755.905511811" x2="377.952755906" y1="1889.76377953" y2="1889.76377953" /><line id="tempc1_r6_e0" stroke="#ff0000" x1="377.952755906" x2="377.952755906" y1="3779.52755906" y2="3401.57480315" /><line id="tempc1_r5_e2" stroke="#ff0000" x1="755.905511811" x2="755.905511811" y1="1511.81102362" y2="1889.76377953" /><line id="tempc1_r5_e0" stroke="#ff0000" x1="755.905511811" x2="755.905511811" y1="3401.57480315" y2="3779.52755906" /><line id="tempc1_r5_e1" stroke="#ff0000" x1="377.952755906" x2="377.952755906" y1="1889.76377953" y2="3401.57480315" /><line id="c1_r2_e0" kerning="0" stroke="#ff0000" x1="377.952755906" x2="755.905511811" y1="1511.81102362" y2="1511.81102362" /><line id="tempc1_r1_e0" stroke="#ff0000" x1="755.905511811" x2="377.952755906" y1="3779.52755906" y2="3779.52755906" /><line id="c1_r4_e0" kerning="0" stroke="#ff0000" x1="377.952755906" x2="755.905511811" y1="3401.57480315" y2="3401.57480315" /><line id="c1_r1_e0" stroke="#ff0000" x1="755.905511811" x2="377.952755906" y1="0.0" y2="0.0" /><line id="c1_r6_e0" stroke="#ff0000" x1="1133.85826772" x2="755.905511811" y1="0.0" y2="0.0" /><line id="c1_r6_e3" stroke="#ff0000" x1="1133.85826772" x2="1133.85826772" y1="1511.81102362" y2="0.0" /><line id="c1_r6_e2" stroke="#ff0000" x1="755.905511811" x2="1133.85826772" y1="1511.81102362" y2="1511.81102362" /></svg>