<?xml version="1.0" encoding="utf-8" ?>
<svg baseProfile="full" height="100%" version="1.1" width="100%" xmlns="http://www.w3.org/2000/svg" xmlns:ev="http://www.w3.org/2001/xml-events" xmlns:xlink="http://www.w3.org/1999/xlink"><defs /><line id="r3_r3_e1" stroke="#ff0000" x1="39.1690138275" x2="39.1690138275" y1="330.684285977" y2="499.358453562" /><line id="r3_r3_e0" kerning="0" stroke="#0000ff" x1="39.1690107706" x2="1.00970078702e-06" y1="330.684285977" y2="330.684285977" /><line id="r4_r4_e1" stroke="#ff0000" x1="39.1690119037" x2="39.1690119037" y1="499.358453562" y2="673.573499824" /><line id="r4_r4_e0" kerning="0" stroke="#0000ff" x1="39.1690138275" x2="1.00970078702e-06" y1="499.358453562" y2="499.358453562" /><line id="r4_r4_e3" stroke="#ff0000" x1="1.00970078702e-06" x2="1.00970078702e-06" y1="673.573499824" y2="499.358453562" /><line id="r1_r1_e3" stroke="#ff0000" x1="1.00970078702e-06" x2="1.00970078702e-06" y1="171.08454541" y2="9.35433060985e-07" /><line id="tempr1_r1_e0" stroke="#ff0000" x1="39.1690119037" x2="1.00970078702e-06" y1="673.573499824" y2="673.573499824" /><line id="r1_r1_e1" stroke="#ff0000" x1="39.1690113477" x2="39.1690113477" y1="9.35433060985e-07" y2="171.08454541" /><line id="r1_r1_e0" stroke="#ff0000" x1="1.00970078702e-06" x2="39.1690113477" y1="9.35433060985e-07" y2="9.35433060985e-07" /><line id="r3_r3_e3" stroke="#ff0000" x1="1.00970078702e-06" x2="1.00970078702e-06" y1="499.358453562" y2="330.684285977" /><line id="r2_r2_e1" stroke="#ff0000" x1="39.1690107706" x2="39.1690107706" y1="171.08454541" y2="330.684285977" /><line id="r2_r2_e0" kerning="0" stroke="#0000ff" x1="39.1690113477" x2="1.00970078702e-06" y1="171.08454541" y2="171.08454541" /><line id="r2_r2_e3" stroke="#ff0000" x1="1.00970078702e-06" x2="1.00970078702e-06" y1="330.684285977" y2="171.08454541" /></svg>